# xmcd CD database file
# Copyright (C) 1993-1998 Ti Kan
# 
# Track frame offsets:
#     150
#     10568
#     26325
#     37272
#     48002
#     61285
#     73422
#     83435
#     92550
#     102907
#     113860
#     126452
#     137415
#     148420
#     162932
#     173440
#     184940
#     195958
# 
# Disc length: 2774 seconds
# 
# Revision: 1
# Processed by: cddbd v1.4b41PL1 Copyright (c) Steve Scherf et al.
# Submitted via: DiscPlay 4.0.4
# 
DISCID=ec0ad412
DTITLE=Johnny Winter - Blues in a Box ( disc 1 )
DYEAR=1900
DGENRE=
TTITLE0=Gonna Miss Me When I'm Gone
TTITLE1=Louie Louie
TTITLE2=Lost Without You
TTITLE3=Hello My Lover
TTITLE4=The Mistress
TTITLE5=You'll Be The Death Of Me
TTITLE6=Shed So Many Tears
TTITLE7=I Had To Cry
TTITLE8=By The Light Of The Silvery Moon
TTITLE9=That's What Love Does
TTITLE10=Leave My Woman Alone
TTITLE11=Voo Doo Twist
TTITLE12=Raining Teardrops
TTITLE13=Low Down Gal Of Mine
TTITLE14=Thirty Eight Special Blues
TTITLE15=Leavin' Blues
TTITLE16=Roadrunner
TTITLE17=Please Come Home For Christmas
EXTD=
EXTT0=
EXTT1=
EXTT2=
EXTT3=
EXTT4=
EXTT5=
EXTT6=
EXTT7=
EXTT8=
EXTT9=
EXTT10=
EXTT11=
EXTT12=
EXTT13=
EXTT14=
EXTT15=
EXTT16=
EXTT17=
PLAYORDER=
